<svg width="28" height="28" viewBox="0 0 28 28" fill="none" xmlns="http://www.w3.org/2000/svg">
<circle cx="14" cy="14" r="14" fill="#E7EBEA"/>
<path d="M17.5715 8.99981C17.966 8.60531 18.6056 8.60531 19 8.99981C19.3945 9.3943 19.3945 10.0339 19 10.4284L10.4285 18.9999C10.034 19.3944 9.39444 19.3944 8.99995 18.9999C8.60546 18.6054 8.60546 17.9658 8.99995 17.5713L17.5715 8.99981Z" fill="#8BA19B"/>
<path d="M19 17.5713C19.3945 17.9658 19.3945 18.6054 19 18.9999C18.6056 19.3944 17.966 19.3944 17.5715 18.9999L8.99995 10.4284C8.60546 10.0339 8.60546 9.3943 8.99995 8.99981C9.39444 8.60531 10.034 8.60531 10.4285 8.99981L19 17.5713Z" fill="#8BA19B"/>
</svg>
