<svg width="17" height="18" viewBox="0 0 17 18" fill="none" xmlns="http://www.w3.org/2000/svg">
<path d="M15.2929 17.2071C15.6834 17.5976 16.3166 17.5976 16.7071 17.2071C17.0976 16.8166 17.0976 16.1834 16.7071 15.7929L15.2929 17.2071ZM12 7.5C12 10.2614 9.76142 12.5 7 12.5V14.5C10.866 14.5 14 11.366 14 7.5H12ZM7 12.5C4.23858 12.5 2 10.2614 2 7.5H0C0 11.366 3.13401 14.5 7 14.5V12.5ZM2 7.5C2 4.73858 4.23858 2.5 7 2.5V0.5C3.13401 0.5 0 3.63401 0 7.5H2ZM7 2.5C9.76142 2.5 12 4.73858 12 7.5H14C14 3.63401 10.866 0.5 7 0.5V2.5ZM10.5355 12.4497L15.2929 17.2071L16.7071 15.7929L11.9497 11.0355L10.5355 12.4497Z" fill="#9DA9B7"/>
</svg>
