<svg width="15" height="15" viewBox="0 0 15 15" fill="none" xmlns="http://www.w3.org/2000/svg">
<path d="M0.181233 7.05646C-0.0604102 7.30146 -0.0604102 7.69871 0.181233 7.94371L6.81022 14.6949C7.05183 14.9399 7.44359 14.9399 7.68523 14.6949L8.73527 13.6302C8.97689 13.3852 8.97689 12.988 8.73527 12.7429L5.0276 8.95386L14.3888 8.95386C14.7264 8.95386 15 8.66243 15 8.30293L15 6.74067C15 6.38117 14.7264 6.08973 14.3888 6.08973L4.98457 6.08973L8.7353 2.257C8.97695 2.012 8.97695 1.61477 8.7353 1.36975L7.68526 0.305056C7.44365 0.0600525 7.05189 0.0600525 6.81024 0.305056L0.181233 7.05646Z" fill="#FEFEFE"/>
</svg>
