<svg width="20" height="20" viewBox="0 0 20 20" fill="none" xmlns="http://www.w3.org/2000/svg">
<path d="M10.5761 0C10.2498 0 9.98523 0.26492 9.98523 0.591716V10H0.590842C0.264529 10 1.11113e-07 10.2649 9.68494e-08 10.5917L0 12.8107C-1.42636e-08 13.1374 0.264529 13.4024 0.590842 13.4024H4.14553L1.62468 15.9269C1.39395 16.158 1.39395 16.5327 1.62468 16.7638L3.23156 18.373C3.4623 18.6041 3.8364 18.6041 4.06714 18.373L6.58789 15.8485V19.4083C6.58789 19.7351 6.85242 20 7.17873 20H9.39439C9.7207 20 9.98523 19.7351 9.98523 19.4083V10H19.4092C19.7355 10 20 9.73508 20 9.40828V7.18935C20 6.86255 19.7355 6.59763 19.4092 6.59763L15.8544 6.59763L18.3753 4.07303C18.606 3.84195 18.606 3.4673 18.3753 3.23622L16.7684 1.62697C16.5377 1.39589 16.1636 1.39589 15.9328 1.62697L13.4121 4.15142V0.591716C13.4121 0.26492 13.1476 0 12.8213 0H10.5761Z" fill="#99A0AA"/>
</svg>
