<svg width="49" height="51" viewBox="0 0 49 51" fill="none" xmlns="http://www.w3.org/2000/svg">
<path fill-rule="evenodd" clip-rule="evenodd" d="M17.7931 35.2919H29.6316C33.2281 35.2919 36.425 34.6175 39.2223 33.2688C42.0196 31.8701 44.1924 29.872 45.7409 27.2744C47.3394 24.6269 48.1386 21.4299 48.1386 17.6834C48.1386 13.9369 47.3394 10.7649 45.7409 8.16734C44.1924 5.51982 42.0196 3.49672 39.2223 2.09803C36.425 0.699344 33.2281 0 29.6316 0H17.7931H10.5252H6.55401V25.2513H0.635269V35.2919H6.55401V38.0111H0.603516V46.857H6.55401V50.2029H17.7931V46.857H32.221V38.0111H17.7931V35.2919ZM17.7931 25.2513H30.0812C32.6786 25.2513 34.4769 24.7518 35.4759 23.7527C36.4749 22.7037 36.9745 20.6806 36.9745 17.6834C36.9745 14.6363 36.4749 12.6132 35.4759 11.6141C34.4769 10.615 32.6786 10.1155 30.0812 10.1155H17.7931V25.2513Z" fill="white"/>
</svg>
