<svg width="20" height="20" viewBox="0 0 20 20" fill="none" xmlns="http://www.w3.org/2000/svg">
<path d="M7.91667 0.909091C7.91667 0.407014 8.32368 0 8.82576 0H11.1742C11.6763 0 12.0833 0.407014 12.0833 0.909091V4.9707L14.9553 2.09872C15.3103 1.74369 15.8859 1.74369 16.241 2.09872L17.9016 3.75934C18.2566 4.11436 18.2566 4.68996 17.9016 5.04499L15.0299 7.91667H19.0909C19.593 7.91667 20 8.32368 20 8.82576V11.1742C20 11.6763 19.593 12.0833 19.0909 12.0833H12.0833V19.0909C12.0833 19.593 11.6763 20 11.1742 20H8.82576C8.32368 20 7.91667 19.593 7.91667 19.0909V15.0299L5.04511 17.9015C4.69009 18.2565 4.11449 18.2565 3.75946 17.9015L2.09884 16.2408C1.74382 15.8858 1.74382 15.3102 2.09884 14.9552L4.9707 12.0833H0.909091C0.407014 12.0833 0 11.6763 0 11.1742V8.82576C0 8.32368 0.407015 7.91667 0.909092 7.91667H7.91667V0.909091Z" fill="#044532"/>
<path d="M6.1367 2.60114C7.11301 3.57745 7.11301 5.16034 6.1367 6.13665C5.16037 7.11299 3.57747 7.11299 2.60117 6.13665C1.62486 5.16034 1.62486 3.57745 2.60117 2.60114C3.57747 1.62481 5.16037 1.62481 6.1367 2.60114Z" fill="#044532"/>
<path d="M17.3867 17.3867C18.363 16.4103 18.363 14.8274 17.3867 13.8511C16.4104 12.8748 14.8275 12.8748 13.8512 13.8511C12.8749 14.8274 12.8749 16.4103 13.8512 17.3867C14.8275 18.363 16.4104 18.363 17.3867 17.3867Z" fill="#044532"/>
</svg>
