<svg width="169" height="36" viewBox="0 0 169 36" fill="none" xmlns="http://www.w3.org/2000/svg">
<path d="M14.25 1.63636C14.25 0.732625 14.9826 0 15.8864 0H20.1136C21.0174 0 21.75 0.732625 21.75 1.63636V8.94727L26.9196 3.77769C27.5586 3.13865 28.5947 3.13865 29.2337 3.77769L32.2229 6.76681C32.8619 7.40584 32.8619 8.44193 32.2229 9.08097L27.0538 14.25H34.3636C35.2674 14.25 36 14.9826 36 15.8864V20.1136C36 21.0174 35.2674 21.75 34.3636 21.75H21.75V34.3636C21.75 35.2674 21.0174 36 20.1136 36H15.8864C14.9826 36 14.25 35.2674 14.25 34.3636V27.0539L9.08121 32.2227C8.44216 32.8617 7.40607 32.8617 6.76703 32.2227L3.77791 29.2335C3.13887 28.5945 3.13888 27.5584 3.77791 26.9194L8.94726 21.75H1.63636C0.732625 21.75 0 21.0174 0 20.1136V15.8864C0 14.9826 0.732626 14.25 1.63636 14.25H14.25V1.63636Z" fill="#DAF50F"/>
<path d="M11.0461 4.68205C12.8034 6.43941 12.8034 9.28862 11.0461 11.046C9.28866 12.8034 6.43945 12.8034 4.6821 11.046C2.92474 9.28862 2.92474 6.43941 4.6821 4.68205C6.43945 2.92465 9.28866 2.92465 11.0461 4.68205Z" fill="#DAF50F"/>
<path d="M31.2961 31.296C33.0534 29.5386 33.0534 26.6894 31.2961 24.9321C29.5387 23.1747 26.6894 23.1747 24.9321 24.9321C23.1747 26.6894 23.1747 29.5386 24.9321 31.296C26.6894 33.0534 29.5387 33.0534 31.2961 31.296Z" fill="#DAF50F"/>
<path d="M72.3157 32.273H64.3053V3.72516H72.3157V32.273ZM53.6105 32.273H45.6001V3.72516H53.6105V32.273ZM68.4384 21.5356H47.6879V14.3347H68.4384V21.5356Z" fill="white"/>
<path d="M83.4865 32.273H75.4761V3.72516H86.2987L90.5596 14.9739L92.3918 22.3452H92.9457L94.9057 14.9739L98.6978 3.72516H109.52V32.273H101.51V21.8339L101.979 15.6982H101.425L99.6778 22.2599L97.377 29.2904H87.6196L85.3187 22.2599L83.5291 15.6982H82.9752L83.4865 21.8339V32.273Z" fill="white"/>
<path d="M125.33 32.6991C122.404 32.6991 119.99 32.2304 118.087 31.293C116.184 30.3272 114.763 28.9921 113.826 27.2878C112.917 25.555 112.462 23.5382 112.462 21.2373V3.72516H120.473V20.8112C120.473 21.8623 120.587 22.686 120.814 23.2825C121.069 23.8791 121.538 24.3052 122.22 24.5608C122.93 24.7881 123.967 24.9017 125.33 24.9017C126.694 24.9017 127.716 24.7881 128.398 24.5608C129.108 24.3052 129.577 23.8791 129.804 23.2825C130.06 22.686 130.188 21.8623 130.188 20.8112V3.72516H138.198V21.2373C138.198 23.5382 137.729 25.555 136.792 27.2878C135.883 28.9921 134.477 30.3272 132.574 31.293C130.699 32.2304 128.284 32.6991 125.33 32.6991Z" fill="white"/>
<path d="M152.31 32.6991C149.64 32.6991 147.396 32.1167 145.578 30.9521C143.76 29.7591 142.382 28.0689 141.445 25.8817C140.536 23.6944 140.082 21.0669 140.082 17.9991C140.082 15.0165 140.65 12.4315 141.786 10.2443C142.922 8.02864 144.584 6.32429 146.771 5.13125C148.958 3.9098 151.643 3.29907 154.824 3.29907C157.807 3.29907 160.264 3.76777 162.195 4.70516C164.155 5.61414 165.618 6.90661 166.584 8.58255C167.55 10.2301 168.033 12.1759 168.033 14.4199V14.7182H159.468V14.5904C159.468 13.2837 159.113 12.3747 158.403 11.8634C157.693 11.3521 156.315 11.0965 154.27 11.0965C152.878 11.0965 151.771 11.2811 150.947 11.6504C150.123 11.9912 149.541 12.6588 149.2 13.653C148.859 14.6188 148.688 16.0675 148.688 17.9991C148.688 20.1011 148.873 21.6776 149.242 22.7286C149.64 23.7796 150.293 24.4756 151.202 24.8165C152.14 25.1573 153.404 25.3278 154.995 25.3278C156.528 25.3278 157.679 25.2283 158.446 25.0295C159.213 24.8307 159.724 24.5182 159.98 24.0921C160.235 23.6376 160.363 23.0553 160.363 22.3452V19.9165H168.075V20.513L161.13 28.2678H160.193C159.909 28.9495 159.483 29.6312 158.915 30.313C158.346 30.9947 157.537 31.5628 156.486 32.0173C155.463 32.4718 154.071 32.6991 152.31 32.6991ZM168.075 32.273H160.576V24.1347L160.363 23.5808V17.4025H168.075V32.273ZM168.075 22.8991H153.588V16.8912H168.075V22.8991Z" fill="white"/>
</svg>
