<svg width="15" height="14" viewBox="0 0 15 14" fill="none" xmlns="http://www.w3.org/2000/svg">
<rect width="14" height="14" transform="translate(0.5)" fill="white"/>
<rect x="2.5" width="10" height="14" rx="1" fill="#B7B49D"/>
<path fill-rule="evenodd" clip-rule="evenodd" d="M7.5 10C7.89397 10 8.28407 9.9224 8.64805 9.77164C9.01203 9.62087 9.34274 9.3999 9.62132 9.12132C9.8999 8.84274 10.1209 8.51203 10.2716 8.14805C10.4224 7.78407 10.5 7.39397 10.5 7C10.5 6.60603 10.4224 6.21593 10.2716 5.85195C10.1209 5.48797 9.8999 5.15726 9.62132 4.87868C9.34274 4.6001 9.01203 4.37913 8.64805 4.22836C8.28407 4.0776 7.89397 4 7.5 4C6.70435 4 5.94129 4.31607 5.37868 4.87868C4.81607 5.44129 4.5 6.20435 4.5 7C4.5 7.79565 4.81607 8.55871 5.37868 9.12132C5.94129 9.68393 6.70435 10 7.5 10ZM7.5 4.66667C7.49167 4.66667 7.44333 4.67 7.36 4.764C7.27733 4.85733 7.18733 5.012 7.105 5.23133C7.04 5.40467 6.984 5.60733 6.93967 5.83333H8.06033C8.016 5.60733 7.96 5.40467 7.895 5.23133C7.81267 5.012 7.72267 4.85767 7.63967 4.764C7.55667 4.67 7.50833 4.66667 7.5 4.66667ZM6.48067 4.99733C6.38195 5.2686 6.30874 5.54848 6.262 5.83333H5.47867C5.72139 5.41404 6.0881 5.08028 6.52833 4.878C6.51167 4.917 6.496 4.957 6.48067 4.99733ZM6.18333 6.5H5.22033C5.14834 6.82945 5.14834 7.17055 5.22033 7.5H6.18367C6.16113 7.16705 6.16079 6.83295 6.18333 6.5ZM6.262 8.16667H5.47867C5.72125 8.58595 6.08785 8.91972 6.528 9.122C6.47364 8.9916 6.42689 8.85815 6.388 8.72233C6.33571 8.5396 6.29365 8.35409 6.262 8.16667ZM6.93967 8.16667H8.06033C8.016 8.39267 7.96 8.59533 7.895 8.76867C7.81267 8.988 7.72267 9.14233 7.63967 9.236C7.55633 9.33 7.50833 9.33333 7.5 9.33333C7.49 9.33333 7.425 9.327 7.319 9.18533C7.21667 9.04867 7.11367 8.83067 7.02867 8.53667C6.99533 8.422 6.96533 8.298 6.93967 8.16667ZM8.14833 7.5H6.85167C6.82682 7.16713 6.82682 6.83287 6.85167 6.5H8.14833C8.17321 6.83287 8.17321 7.16713 8.14833 7.5ZM8.738 8.16667C8.68467 8.47567 8.611 8.75833 8.51933 9.00267C8.504 9.043 8.48833 9.08267 8.47167 9.122C8.9119 8.91972 9.27861 8.58596 9.52133 8.16667H8.738ZM9.77967 7.5H8.81633C8.83892 7.16705 8.83892 6.83295 8.81633 6.5H9.77967C9.85166 6.82945 9.85166 7.17055 9.77967 7.5ZM8.47167 4.878C8.9119 5.08028 9.27861 5.41404 9.52133 5.83333H8.738C8.69127 5.54847 8.61806 5.26859 8.51933 4.99733C8.50425 4.95724 8.48836 4.91745 8.47167 4.878Z" fill="white"/>
<path d="M4.5 2H10.5" stroke="white" stroke-width="0.5" stroke-linecap="round" stroke-linejoin="round"/>
<path d="M4.5 12H10.5" stroke="white" stroke-width="0.5" stroke-linecap="round" stroke-linejoin="round"/>
</svg>
