<svg width="16" height="15" viewBox="0 0 16 15" fill="none" xmlns="http://www.w3.org/2000/svg">
<path d="M7.01411 8.58722C6.31559 8.58722 5.65692 8.5921 4.9986 8.58583C4.34556 8.57956 3.69253 8.56458 3.03985 8.5482C2.92842 8.54541 2.86072 8.57991 2.79584 8.67154C2.50071 9.08929 2.19852 9.50252 1.89316 9.91295C1.85508 9.96452 1.78209 10.0224 1.72426 10.0231C1.15868 10.0314 0.59309 10.0279 0.00282088 10.0279C0.113188 9.79797 0.214387 9.5837 0.318407 9.37047C0.600494 8.79105 0.881172 8.21093 1.1682 7.63396C1.21615 7.53745 1.21791 7.46254 1.16925 7.36393C0.780678 6.57791 0.398802 5.78874 0 4.96961C0.178773 4.96961 0.335684 4.96961 0.492596 4.96961C0.878351 4.96961 1.26411 4.97589 1.64951 4.96613C1.77927 4.96265 1.84979 5.01212 1.91961 5.11037C2.21192 5.52255 2.50952 5.93124 2.81136 6.3368C2.84909 6.38767 2.92525 6.44342 2.98273 6.44272C4.31277 6.42216 5.64317 6.39429 7.00353 6.36711C6.49437 4.24874 5.98802 2.14395 5.47709 0.0172181C5.5596 0.0119918 5.61848 0.00467507 5.67737 0.00467507C6.20628 0.00362982 6.7352 0.0105982 7.26376 0.000145655C7.42243 -0.0029901 7.50495 0.0440462 7.57653 0.185852C8.57053 2.15336 9.57335 4.11634 10.5649 6.0849C10.6502 6.25423 10.7447 6.3044 10.9313 6.29917C12.1559 6.26538 13.3815 6.25074 14.6062 6.21555C14.9658 6.2051 15.2962 6.2936 15.5603 6.50857C15.8801 6.76884 16.0074 7.14234 15.9997 7.55591C15.988 8.18515 15.4341 8.8137 14.6047 8.78478C13.3678 8.74123 12.1298 8.73286 10.8925 8.69942C10.731 8.69489 10.6523 8.74262 10.5815 8.88268C9.58464 10.8554 8.58005 12.8243 7.58393 14.7978C7.50636 14.9518 7.41574 15.0033 7.24437 14.9998C6.66679 14.9887 6.08886 14.9957 5.47356 14.9957C5.9852 12.8668 6.49154 10.7613 7.01411 8.58792V8.58722Z" fill="#006659"/>
</svg>
